<svg width="24" height="25" viewBox="0 0 24 25" fill="none" xmlns="http://www.w3.org/2000/svg">
<mask id="mask0_69978_5664" style="mask-type:alpha" maskUnits="userSpaceOnUse" x="0" y="0" width="24" height="25">
<rect y="0.5" width="24" height="24" fill="#D9D9D9"/>
</mask>
<g mask="url(#mask0_69978_5664)">
<path d="M16.1 13.8L14.65 12.35C14.8 11.5666 14.575 10.8333 13.975 10.15C13.375 9.46664 12.6 9.19998 11.65 9.34998L10.2 7.89998C10.4834 7.76664 10.7709 7.66664 11.0625 7.59998C11.3542 7.53331 11.6667 7.49998 12 7.49998C13.25 7.49998 14.3125 7.93748 15.1875 8.81248C16.0625 9.68748 16.5 10.75 16.5 12C16.5 12.3333 16.4667 12.6458 16.4 12.9375C16.3334 13.2291 16.2334 13.5166 16.1 13.8ZM19.3 16.95L17.85 15.55C18.4834 15.0666 19.0459 14.5375 19.5375 13.9625C20.0292 13.3875 20.45 12.7333 20.8 12C19.9667 10.3166 18.7709 8.97914 17.2125 7.98748C15.6542 6.99581 13.9167 6.49998 12 6.49998C11.5167 6.49998 11.0417 6.53331 10.575 6.59998C10.1084 6.66664 9.65005 6.76664 9.20005 6.89998L7.65005 5.34998C8.33338 5.06664 9.03338 4.85414 9.75005 4.71248C10.4667 4.57081 11.2167 4.49998 12 4.49998C14.3834 4.49998 16.525 5.12914 18.425 6.38748C20.325 7.64581 21.75 9.28331 22.7 11.3C22.75 11.3833 22.7834 11.4875 22.8 11.6125C22.8167 11.7375 22.825 11.8666 22.825 12C22.825 12.1333 22.8125 12.2625 22.7875 12.3875C22.7626 12.5125 22.7334 12.6166 22.7 12.7C22.3167 13.55 21.8375 14.3333 21.2625 15.05C20.6875 15.7666 20.0334 16.4 19.3 16.95ZM19.1 22.4L15.6 18.95C15.0167 19.1333 14.4292 19.2708 13.8375 19.3625C13.2459 19.4541 12.6334 19.5 12 19.5C9.61672 19.5 7.47505 18.8708 5.57505 17.6125C3.67505 16.3541 2.25005 14.7166 1.30005 12.7C1.25005 12.6166 1.21672 12.5125 1.20005 12.3875C1.18338 12.2625 1.17505 12.1333 1.17505 12C1.17505 11.8666 1.18338 11.7416 1.20005 11.625C1.21672 11.5083 1.25005 11.4083 1.30005 11.325C1.65005 10.575 2.06672 9.88331 2.55005 9.24998C3.03338 8.61664 3.56672 8.03331 4.15005 7.49998L2.07505 5.39998C1.89172 5.21664 1.80005 4.98748 1.80005 4.71248C1.80005 4.43748 1.90005 4.19998 2.10005 3.99998C2.28338 3.81664 2.51672 3.72498 2.80005 3.72498C3.08338 3.72498 3.31672 3.81664 3.50005 3.99998L20.5 21C20.6834 21.1833 20.7792 21.4125 20.7875 21.6875C20.7959 21.9625 20.7001 22.2 20.5 22.4C20.3167 22.5833 20.0834 22.675 19.8 22.675C19.5167 22.675 19.2834 22.5833 19.1 22.4ZM5.55005 8.89998C5.06672 9.33331 4.62505 9.80831 4.22505 10.325C3.82505 10.8416 3.48338 11.4 3.20005 12C4.03338 13.6833 5.22922 15.0208 6.78755 16.0125C8.34588 17.0041 10.0834 17.5 12 17.5C12.3334 17.5 12.6584 17.4791 12.975 17.4375C13.2917 17.3958 13.6167 17.35 13.95 17.3L13.05 16.35C12.8667 16.4 12.6917 16.4375 12.525 16.4625C12.3584 16.4875 12.1834 16.5 12 16.5C10.75 16.5 9.68755 16.0625 8.81255 15.1875C7.93755 14.3125 7.50005 13.25 7.50005 12C7.50005 11.8166 7.51255 11.6416 7.53755 11.475C7.56255 11.3083 7.60005 11.1333 7.65005 10.95L5.55005 8.89998Z" fill="#A8A8A8"/>
</g>
</svg>
